<svg xmlns="http://www.w3.org/2000/svg" viewBox="0 0 512 512">
  <defs>
    <linearGradient id="bg" x1="0%" y1="0%" x2="100%" y2="100%">
      <stop offset="0%" style="stop-color:#5eead4"/>
      <stop offset="100%" style="stop-color:#0d9488"/>
    </linearGradient>
  </defs>

  <!-- Фон с закруглёнными углами (как у нативных иконок) -->
  <rect width="512" height="512" rx="96" fill="url(#bg)"/>

  <!-- Центральная большая искра -->
  <path d="M256,148 C261,196 316,251 364,256 C316,261 261,316 256,364 C251,316 196,261 148,256 C196,251 251,196 256,148 Z"
        fill="white"/>

  <!-- Маленькая искра — правый верх -->
  <path d="M352,120 C354,136 368,150 384,152 C368,154 354,168 352,184 C350,168 336,154 320,152 C336,150 350,136 352,120 Z"
        fill="white" opacity="0.85"/>

  <!-- Маленькая искра — левый низ -->
  <path d="M162,338 C163.5,349 172,357.5 183,359 C172,360.5 163.5,369 162,380 C160.5,369 152,360.5 141,359 C152,357.5 160.5,349 162,338 Z"
        fill="white" opacity="0.7"/>
</svg>
